<svg width="85" height="42" viewBox="0 0 85 42" fill="none" xmlns="http://www.w3.org/2000/svg">
<path d="M4.1478 32.5481L5.0628 3.50731C34.4494 8.18907 52.3479 8.90887 81.2741 5.93666L80.3603 34.9389C50.7411 38.8543 33.3299 38.4093 4.1478 32.5481Z" fill="#59CE89" stroke="#00C851" stroke-width="6"/>
<path d="M50.4703 22.5C50.3138 27.4681 46.3832 31.3757 41.6911 31.2279C36.999 31.08 33.3222 26.9327 33.4787 21.9647C33.6353 16.9966 37.5658 13.089 42.2579 13.2368C46.95 13.3846 50.6268 17.5319 50.4703 22.5Z" fill="#00C851"/>
<circle cx="77.2822" cy="12.0714" r="4" transform="rotate(1.80463 77.2822 12.0714)" fill="#00C851"/>
<circle cx="76.7153" cy="31.0625" r="4" transform="rotate(1.80463 76.7153 31.0625)" fill="#00C851"/>
<circle cx="7.74903" cy="28.9211" r="4" transform="rotate(1.80463 7.74903 28.9211)" fill="#00C851"/>
<circle cx="10.3159" cy="7.93001" r="4" transform="rotate(1.80463 10.3159 7.93001)" fill="#00C851"/>
</svg>
